<svg width="70" height="67" viewBox="0 0 70 67" fill="none" xmlns="http://www.w3.org/2000/svg">
<g opacity="1" clip-path="url(#clip0_5_1630)">
<path d="M36.8392 66.1468C26.0598 66.1468 15.917 60.8787 9.70933 52.0632C9.59438 51.8956 9.56785 51.675 9.65628 51.4897C9.74471 51.3044 9.92156 51.1808 10.1249 51.1543C11.6813 51.0132 13.4587 50.7308 15.413 50.3337C16.6421 50.0866 18.0039 49.7689 19.5868 49.363C29.0663 46.9275 41.0484 42.4713 53.3134 36.7972C55.0289 36.0031 56.7268 35.2 58.3892 34.397C58.6722 34.2647 59.0082 34.3706 59.1497 34.6529L61.4312 39.1621C61.6788 39.6651 62.4746 39.6475 62.7222 39.1533L68.1694 28.0965C68.2667 27.8935 68.2667 27.6641 68.1694 27.47C68.0633 27.267 67.8776 27.1258 67.6477 27.0817L55.5065 24.8668C55.2323 24.8139 54.9228 24.9462 54.7637 25.2021C54.631 25.4139 54.6222 25.6698 54.7371 25.8904L57.107 30.5938C57.1777 30.735 57.1866 30.885 57.1424 31.035C57.0893 31.1762 56.9921 31.2997 56.8506 31.3703C55.2765 32.138 53.6141 32.9322 51.8986 33.7176C40.4913 38.9857 29.2343 43.239 20.197 45.7009C17.5353 46.4069 15.2361 46.9363 13.3526 47.2717C11.1065 47.6776 9.16108 47.8894 7.56937 47.8894C7.34829 47.8894 7.14491 47.7658 7.05648 47.5629C6.69392 46.8216 6.34905 46.0451 5.99534 45.1803C5.91575 44.9773 5.95112 44.7479 6.09261 44.5891C7.14491 43.3713 8.56861 42.03 10.3283 40.5917C9.98346 39.4092 9.69165 38.1738 9.44405 36.9296C7.87887 38.1385 6.52591 39.2857 5.42055 40.3534C5.27022 40.4946 5.058 40.5476 4.85461 40.4858C4.66007 40.424 4.5009 40.2652 4.45668 40.0622C3.96148 37.7767 3.71388 35.4295 3.71388 33.0822C3.6962 14.8336 18.561 0 36.8392 0C55.1174 0 69.9999 14.8336 69.9999 33.0734C69.9999 51.3132 55.1262 66.1468 36.8392 66.1468ZM11.2303 52.1956C17.27 60.2257 26.7672 64.9908 36.8392 64.9908C54.4895 64.9908 68.8415 50.669 68.8415 33.0646C68.8415 31.9174 68.7796 30.7879 68.6646 29.676L63.748 39.6651C63.4296 40.3093 62.7841 40.7064 62.059 40.7064C61.3339 40.7064 60.7149 40.3093 60.3965 39.6828L58.3715 35.6854C56.8683 36.409 55.3384 37.1326 53.7821 37.8473C41.4552 43.5478 29.4112 48.0305 19.8609 50.4837C18.2604 50.8896 16.8809 51.2161 15.634 51.4632C14.0423 51.7897 12.5656 52.0368 11.2215 52.1956H11.2303ZM7.18028 45.0656C7.42788 45.6568 7.66664 46.2039 7.92308 46.7334C9.38215 46.7069 11.133 46.5039 13.1404 46.1422C14.9885 45.8157 17.2611 45.295 19.8875 44.5979C28.8629 42.1536 40.0491 37.9267 51.4122 32.6851C52.9332 31.988 54.4099 31.2909 55.8159 30.6026L53.7025 26.4199C53.4107 25.8375 53.4461 25.158 53.7821 24.6109C54.1889 23.9579 54.9228 23.6138 55.701 23.7461L67.8511 25.961C67.9218 25.9699 67.9837 25.9875 68.0456 26.0051C64.818 11.7892 52.0489 1.14716 36.8392 1.14716C19.1977 1.14716 4.84577 15.469 4.84577 33.0734C4.84577 34.9971 5.02262 36.9208 5.35865 38.8092C6.52591 37.7503 7.90539 36.6208 9.47058 35.4383C9.62975 35.3148 9.84198 35.2883 10.0277 35.3589C10.2134 35.4295 10.346 35.5971 10.3814 35.7913C10.6732 37.4502 11.0534 39.0739 11.5221 40.6182C11.5929 40.8388 11.5221 41.0858 11.3276 41.227C9.61206 42.6036 8.21489 43.8831 7.17144 45.0479L7.18028 45.0656Z" fill="white"/>
<path d="M36.8392 66.1468C30.2424 66.1468 24.1055 59.8374 20.816 49.6807C20.7717 49.5307 20.7806 49.3718 20.8602 49.2306C20.9309 49.0895 21.0635 48.9924 21.2139 48.9483C30.4104 46.4334 41.8089 42.1183 53.3223 36.8061L53.729 36.6208C53.9678 36.5149 54.2065 36.4001 54.4453 36.2943C54.631 36.206 54.8432 36.2237 55.0112 36.3384C55.1793 36.4531 55.2765 36.6472 55.2589 36.8502C54.2066 53.5545 46.2922 66.1468 36.848 66.1468H36.8392ZM22.0982 49.8925C25.2639 59.2286 30.8791 64.9996 36.8392 64.9996C45.4875 64.9996 52.7917 53.3516 54.0385 37.7414L53.7909 37.8562C42.4721 43.0801 31.2417 47.3423 22.0893 49.9013L22.0982 49.8925ZM20.1704 45.6745C20.0643 45.6745 19.967 45.648 19.8698 45.595C19.7371 45.5156 19.6399 45.3833 19.6045 45.2244C18.7556 41.3594 18.3223 37.2738 18.3223 33.0734C18.3223 14.8336 26.6257 0 36.8392 0C45.3372 0 52.721 10.2273 54.799 24.8756C54.8167 24.9992 54.799 25.1227 54.7371 25.2286C54.631 25.4316 54.631 25.6698 54.7371 25.8993L54.9582 26.3228C54.9936 26.3846 55.0112 26.4552 55.0201 26.517C55.2146 28.2818 55.3296 30.029 55.3561 31.7145C55.3561 31.9351 55.2323 32.1468 55.0289 32.2439C54.3392 32.5704 53.6495 32.8969 52.9509 33.2234L51.8986 33.7176C40.5974 38.9327 29.3847 43.1772 20.3296 45.6568C20.2765 45.6745 20.2323 45.6745 20.1793 45.6745H20.1704ZM36.8392 1.14716C27.2624 1.14716 19.4718 15.469 19.4718 33.0734C19.4718 36.9737 19.8521 40.777 20.6037 44.3861C29.4996 41.8977 40.4117 37.7503 51.4122 32.6763L52.4557 32.1821C53.0393 31.9086 53.6141 31.635 54.1977 31.3703C54.1623 29.8702 54.0562 28.3171 53.8882 26.7552L53.7114 26.4111C53.4726 25.9169 53.4461 25.361 53.6406 24.8756C51.6156 10.898 44.7182 1.14716 36.8392 1.14716Z" fill="white"/>
<path d="M36.8393 51.5252C31.7989 51.5252 26.953 50.9163 22.4432 49.7074C22.1956 49.6368 22.0187 49.4162 22.0187 49.1603C22.0187 48.9044 22.1867 48.675 22.4343 48.6044C31.3391 46.0718 42.3042 41.8891 53.3136 36.8063C55.0291 36.0121 56.7269 35.2091 58.3894 34.4061C58.6723 34.2737 59.0084 34.3796 59.1499 34.662L61.4313 39.1712C61.6789 39.6742 62.4748 39.6565 62.7224 39.1624L67.9485 28.538C68.0458 28.335 68.2226 28.2115 68.4702 28.2203C68.6913 28.2203 68.8947 28.3526 68.9831 28.5556C69.6463 30.0293 69.9912 31.547 69.9912 33.0736C69.9912 43.248 55.1175 51.5252 36.8305 51.5252H36.8393ZM24.8042 49.1073C28.6243 49.9545 32.6567 50.378 36.8393 50.378C54.4897 50.378 68.8416 42.6127 68.8416 33.0736C68.8416 32.1206 68.6913 31.1676 68.3995 30.2234L63.7481 39.6654C63.4298 40.3095 62.7843 40.7066 62.0592 40.7066C61.334 40.7066 60.715 40.3095 60.3967 39.683L58.3717 35.6856C56.8684 36.4092 55.3386 37.1328 53.7822 37.8476C43.5511 42.5686 33.3553 46.5218 24.7865 49.1073H24.8042ZM15.024 46.9278C14.9356 46.9278 14.8472 46.9101 14.7676 46.866C12.3977 45.6924 10.3462 44.3334 8.67487 42.8245C8.55107 42.7186 8.48032 42.5597 8.48917 42.3921C8.48917 42.2244 8.55991 42.0744 8.68371 41.9685C9.17007 41.5449 9.70948 41.0773 10.3108 40.5831C9.96592 39.4006 9.67411 38.1652 9.42651 36.921C8.42727 37.6976 7.44571 38.5094 6.44647 39.383C6.32267 39.4889 6.14581 39.5418 5.98664 39.5242C5.81863 39.4977 5.6683 39.4006 5.57987 39.2595C4.32419 37.2652 3.6875 35.1826 3.6875 33.0736C3.6875 22.8992 18.5523 14.6221 36.8305 14.6221C50.3778 14.6221 62.4217 19.1048 67.5152 26.0495C67.6567 26.2348 67.6655 26.4907 67.5417 26.6937C67.4179 26.8966 67.1792 26.9937 66.9492 26.9496L55.4889 24.8582C55.2148 24.8053 54.9053 24.9377 54.7461 25.1936C54.6135 25.4053 54.6046 25.6612 54.7196 25.8818L57.0895 30.5852C57.1602 30.7264 57.1691 30.8764 57.1248 31.0264C57.0718 31.1676 56.9745 31.2911 56.833 31.3617C55.259 32.1294 53.5965 32.9236 51.881 33.709C40.4738 38.9771 29.2168 43.2304 20.1794 45.6924C18.4108 46.1689 16.713 46.5748 15.139 46.9189C15.0948 46.9189 15.0594 46.9278 15.0152 46.9278H15.024ZM9.93939 42.4009C11.3985 43.6275 13.1317 44.757 15.1036 45.7453C16.5981 45.4188 18.2075 45.0305 19.8876 44.5805C28.8631 42.1362 40.0493 37.9093 51.4124 32.6677C52.9333 31.9706 54.4101 31.2735 55.8161 30.5852L53.7027 26.4025C53.4108 25.8201 53.4462 25.1406 53.7822 24.5935C54.189 23.9405 54.923 23.5964 55.7011 23.7287L65.6405 25.5377C60.2994 19.5548 49.237 15.7604 36.8393 15.7604C19.1979 15.7604 4.84591 23.5258 4.84591 33.0648C4.84591 34.7591 5.30574 36.4357 6.21656 38.0594C7.29538 37.1328 8.37421 36.268 9.47957 35.4297C9.63874 35.3062 9.85097 35.2797 10.0367 35.3503C10.2224 35.4209 10.355 35.5886 10.3904 35.7827C10.6822 37.4417 11.0624 39.0653 11.5311 40.6096C11.6019 40.8302 11.5311 41.0684 11.3454 41.2184C10.8414 41.6244 10.3727 42.0215 9.94824 42.3832L9.93939 42.4009Z" fill="white"/>
<path d="M69.4252 33.6472H66.3656C66.0472 33.6472 65.7908 33.3913 65.7908 33.0736C65.7908 32.7559 66.0472 32.5 66.3656 32.5H69.4252C69.7435 32.5 70 32.7559 70 33.0736C70 33.3913 69.7435 33.6472 69.4252 33.6472ZM51.9163 33.6472H4.27107C3.95273 33.6472 3.69629 33.3913 3.69629 33.0736C3.69629 32.7559 3.95273 32.5 4.27107 32.5H51.9075C52.2258 32.5 52.4823 32.7559 52.4823 33.0736C52.4823 33.3913 52.2258 33.6472 51.9075 33.6472H51.9163Z" fill="white"/>
<path d="M36.8394 66.1468C36.5211 66.1468 36.2646 65.8909 36.2646 65.5732V44.3773C36.2646 44.0596 36.5211 43.8037 36.8394 43.8037C37.1578 43.8037 37.4142 44.0596 37.4142 44.3773V65.5732C37.4142 65.8909 37.1578 66.1468 36.8394 66.1468ZM36.8394 40.071C36.5211 40.071 36.2646 39.8151 36.2646 39.4975V0.573578C36.2646 0.255904 36.5211 0 36.8394 0C37.1578 0 37.4142 0.255904 37.4142 0.573578V39.4975C37.4142 39.8151 37.1578 40.071 36.8394 40.071Z" fill="white"/>
<path d="M8.1885 52.4424H7.49876C3.81129 52.4424 1.43256 51.3482 0.433321 49.1862C-1.14955 45.7536 1.96313 42.3033 2.9889 41.1738C4.49219 39.4884 6.66753 37.5647 9.46187 35.4468C9.62104 35.3233 9.83327 35.2968 10.019 35.3674C10.2047 35.438 10.3373 35.6057 10.3727 35.7998C10.6645 37.4588 11.0447 39.0824 11.5134 40.6267C11.5842 40.8473 11.5134 41.0944 11.3277 41.2356C8.26809 43.7064 6.89744 45.2859 6.28729 46.1772C6.18117 46.3184 6.21654 46.4419 6.24307 46.5037C6.2696 46.5566 6.34034 46.6801 6.52604 46.6978C6.80017 46.7243 7.1362 46.7331 7.51644 46.7331C9.00204 46.7331 10.8944 46.5301 13.1228 46.133C14.971 45.8065 17.2436 45.2859 19.8699 44.5888C28.8454 42.1445 40.0316 37.9176 51.3947 32.676C52.9156 31.9789 54.3924 31.2818 55.7984 30.5935L53.685 26.4108C53.3931 25.8284 53.4285 25.1489 53.7645 24.6018C54.1713 23.9488 54.9053 23.6047 55.6834 23.737L67.8335 25.9519C68.426 26.0666 68.9124 26.4284 69.1776 26.9579C69.4341 27.4785 69.4341 28.0786 69.1776 28.608L63.7304 39.6648C63.4121 40.309 62.7666 40.7061 62.0415 40.7061C61.3163 40.7061 60.6973 40.309 60.379 39.6825L58.354 35.6851C56.8507 36.4087 55.3209 37.1323 53.7645 37.847C41.4376 43.5475 29.3937 48.0303 19.8434 50.4834C18.2428 50.8893 16.8633 51.2158 15.6165 51.4629C12.6276 52.0718 10.1958 52.3895 8.17966 52.4424C8.17966 52.4424 8.17081 52.4424 8.16197 52.4424H8.1885ZM9.4265 36.9293C7.04777 38.7736 5.17309 40.459 3.8555 41.9415C2.95353 42.9387 0.221092 45.9654 1.48562 48.7097C2.27263 50.4305 4.30649 51.2952 7.5076 51.2952H8.1885C10.1339 51.2423 12.495 50.9335 15.422 50.3422C16.6511 50.0951 18.0129 49.7775 19.5869 49.3716C29.0665 46.9361 41.0485 42.4798 53.3136 36.8058C55.0291 36.0116 56.7269 35.2086 58.3894 34.4056C58.6723 34.2732 59.0084 34.3791 59.1498 34.6615L61.4313 39.1707C61.6789 39.6737 62.4748 39.656 62.7224 39.1619L68.1695 28.105C68.2668 27.9021 68.2668 27.6727 68.1695 27.4785C68.0634 27.2756 67.8777 27.1344 67.6478 27.0903L55.5066 24.8754C55.2325 24.8224 54.923 24.9548 54.7638 25.2107C54.6311 25.4225 54.6223 25.6784 54.7373 25.899L57.1072 30.6023C57.1779 30.7435 57.1867 30.8935 57.1425 31.0435C57.0895 31.1847 56.9922 31.3083 56.8507 31.3789C55.2767 32.1466 53.6142 32.9407 51.8987 33.7261C40.4914 38.9942 29.2345 43.2475 20.1971 45.7095C17.5354 46.4154 15.2363 46.9449 13.3527 47.2802C11.0536 47.6861 9.09931 47.8979 7.54297 47.8979C7.12736 47.8979 6.7648 47.8803 6.44646 47.8538C5.8982 47.8008 5.43837 47.4743 5.2173 46.989C4.99623 46.5125 5.05813 45.9654 5.36763 45.533C5.99547 44.6241 7.36611 43.0269 10.3285 40.6002C9.9836 39.4178 9.69178 38.1912 9.44419 36.9381L9.4265 36.9293Z" fill="white"/>
</g>
<defs>
<clipPath id="clip0_5_1630">
<rect width="70" height="66.1468" fill="white"/>
</clipPath>
</defs>
</svg>
