<svg width="82" height="113" viewBox="0 0 82 113" fill="none" xmlns="http://www.w3.org/2000/svg">
<g opacity="1" clip-path="url(#clip0_5_1605)">
<path d="M45.9847 31.6645C46.4697 28.6973 44.4405 25.9014 41.4521 25.4197C38.4638 24.9381 35.648 26.9531 35.163 29.9203C34.6779 32.8875 36.7072 35.6834 39.6955 36.1651C42.6838 36.6467 45.4996 34.6318 45.9847 31.6645Z" stroke="white" stroke-width="1.47712" stroke-miterlimit="10"/>
<path d="M28.5371 48.7441C28.5371 44.0353 31.2835 39.9558 35.2752 38.0127C36.843 38.8683 38.6498 39.3596 40.5679 39.3596C42.4859 39.3596 44.2872 38.8683 45.8605 38.0127C49.8467 39.9614 52.5931 44.0298 52.5931 48.7441" stroke="white" stroke-width="1.47712" stroke-miterlimit="10" stroke-linecap="round"/>
<path d="M18.0669 96.1597C19.2254 93.3824 17.8972 90.1984 15.1002 89.0481C12.3032 87.8977 9.09663 89.2165 7.93808 91.9938C6.77952 94.7711 8.10773 97.955 10.9047 99.1054C13.7017 100.256 16.9083 98.9369 18.0669 96.1597Z" stroke="white" stroke-width="1.47712" stroke-miterlimit="10"/>
<path d="M0.973145 112.034C0.973145 107.325 3.71954 103.246 7.71126 101.303C9.27904 102.158 11.0859 102.65 13.0039 102.65C14.9219 102.65 16.7232 102.158 18.2965 101.303C22.2827 103.251 25.0291 107.32 25.0291 112.034" stroke="white" stroke-width="1.47712" stroke-miterlimit="10" stroke-linecap="round"/>
<path d="M46.0127 96.1636C47.1712 93.3863 45.843 90.2024 43.046 89.052C40.249 87.9016 37.0424 89.2204 35.8839 91.9977C34.7253 94.775 36.0535 97.9589 38.8505 99.1093C41.6475 100.26 44.8541 98.9408 46.0127 96.1636Z" stroke="white" stroke-width="1.47712" stroke-miterlimit="10"/>
<path d="M28.9204 112.034C28.9204 107.325 31.6668 103.246 35.6585 101.303C37.2263 102.158 39.0331 102.65 40.9512 102.65C42.8692 102.65 44.6705 102.158 46.2438 101.303C50.23 103.251 52.9764 107.32 52.9764 112.034" stroke="white" stroke-width="1.47712" stroke-miterlimit="10" stroke-linecap="round"/>
<path d="M74.3466 95.1881C74.96 92.2444 73.054 89.3642 70.0893 88.7552C67.1247 88.1461 64.2241 90.0387 63.6107 92.9824C62.9973 95.9261 64.9033 98.8063 67.868 99.4153C70.8326 100.024 73.7332 98.1318 74.3466 95.1881Z" stroke="white" stroke-width="1.47712" stroke-miterlimit="10"/>
<path d="M56.9517 112.034C56.9517 107.325 59.6981 103.246 63.6898 101.303C65.2576 102.158 67.0644 102.65 68.9824 102.65C70.9004 102.65 72.7017 102.158 74.2751 101.303C78.2612 103.251 81.0076 107.32 81.0076 112.034" stroke="white" stroke-width="1.47712" stroke-miterlimit="10" stroke-linecap="round"/>
<path d="M59.5532 48.7715H22.3379V55.5945H59.5532V48.7715Z" stroke="white" stroke-width="1.47712" stroke-miterlimit="10" stroke-linecap="round"/>
<path d="M24.7178 55.5947V78.5977H57.1797V55.5947" stroke="white" stroke-width="1.47712" stroke-miterlimit="10" stroke-linecap="round"/>
<path d="M65.7129 0.96582C57.685 0.96582 51.1748 7.43006 51.1748 15.4013C51.1748 18.6583 52.2645 21.6668 54.0991 24.0792L53.0317 32.4535L60.8317 28.9978C62.355 29.5388 64.0006 29.8369 65.7129 29.8369C73.7408 29.8369 80.251 23.3726 80.251 15.4013C80.251 7.43006 73.7408 0.96582 65.7129 0.96582Z" stroke="white" stroke-width="1.47712" stroke-miterlimit="10"/>
<path d="M59.5034 11.7305H71.9289" stroke="white" stroke-width="1.47712" stroke-miterlimit="10" stroke-linecap="round"/>
<path d="M59.5034 15.9424H71.9289" stroke="white" stroke-width="1.47712" stroke-miterlimit="10" stroke-linecap="round"/>
<path d="M59.5034 20.1484H66.6752" stroke="white" stroke-width="1.47712" stroke-miterlimit="10" stroke-linecap="round"/>
</g>
<defs>
<clipPath id="clip0_5_1605">
<rect width="81.9804" height="113" fill="white"/>
</clipPath>
</defs>
</svg>
