<svg width="85" height="56" viewBox="0 0 85 56" fill="none" xmlns="http://www.w3.org/2000/svg">
<g opacity="1" clip-path="url(#clip0_5_1637)">
<path d="M10.0902 11.916H13.4712V38.7505H10.0902C4.94594 38.7505 0.771484 34.5694 0.771484 29.4171V21.2538C0.771484 16.1014 4.94594 11.9204 10.0902 11.9204V11.916Z" stroke="white" stroke-width="1.25843" stroke-miterlimit="10"/>
<path d="M13.4756 38.7507C43.7195 39.7309 60.5495 49.3379 60.5495 49.3379V1.3291C60.5495 1.3291 43.7195 10.9362 13.4756 11.9163" stroke="white" stroke-width="1.25843" stroke-miterlimit="10"/>
<path d="M28.992 40.3975V53.36C28.992 54.3931 28.1589 55.2275 27.1274 55.2275H24.8749C21.9171 55.2275 19.5146 52.8258 19.5146 49.8589V39.126" stroke="white" stroke-width="1.25843" stroke-miterlimit="10"/>
<path d="M60.5454 17.0332C64.041 18.5431 66.5051 22.0442 66.5051 26.0972C66.5051 30.1502 64.041 33.6381 60.5454 35.148" stroke="white" stroke-width="1.25843" stroke-miterlimit="10"/>
<path d="M84.1723 26.1016H74.8228" stroke="white" stroke-width="1.25843" stroke-miterlimit="10" stroke-linecap="round"/>
<path d="M81.9153 14.8525L73.271 18.7113" stroke="white" stroke-width="1.25843" stroke-miterlimit="10" stroke-linecap="round"/>
<path d="M75.299 5.50098L68.9072 12.6224" stroke="white" stroke-width="1.25843" stroke-miterlimit="10" stroke-linecap="round"/>
<path d="M74.8229 46.4767L68.7441 39.7129" stroke="white" stroke-width="1.25843" stroke-miterlimit="10" stroke-linecap="round"/>
<path d="M81.664 37.2762L73.2534 33.5234" stroke="white" stroke-width="1.25843" stroke-miterlimit="10" stroke-linecap="round"/>
<path d="M53.5669 46.2212V4.4375" stroke="white" stroke-width="1.25843" stroke-miterlimit="10" stroke-linecap="round"/>
</g>
<defs>
<clipPath id="clip0_5_1637">
<rect width="84.9438" height="56" fill="white"/>
</clipPath>
</defs>
</svg>
